<svg width="96" height="96" viewBox="0 0 96 96" fill="none" xmlns="http://www.w3.org/2000/svg">
<path d="M69.7421 11L62.4234 18.652C62.0631 18.6049 61.6803 18.5578 61.32 18.5343C58.6853 17.4277 54.0238 16.6507 48.5517 21.0536L48.4166 21.1713L46.6151 23.0549C39.8594 18.2518 34.4774 21.2184 32.9686 22.2543L26.2354 15.2145L5 37.4171L13.0618 45.8461C13.1294 49.6133 14.4129 53.4981 16.89 57.4065C17.9259 59.0076 19.1194 60.4909 20.4255 61.88C22.0919 63.6459 23.7583 65.3646 25.4472 67.1305C23.6232 69.8617 24.3888 72.1455 26.2804 74.2174C28.2396 76.36 30.0411 76.5954 32.6984 75.7949C32.7209 75.7949 32.7434 75.7949 32.7659 75.8185C34.68 78.8086 36.4365 80.2449 38.3281 80.4097C39.1163 81.2102 39.9044 82.0107 40.6926 82.8112C43.0346 85.1657 46.6151 85.7072 49.43 84.012C50.646 83.2821 50.8487 82.67 51.4792 81.634C56.2532 85.8249 59.4509 85.8956 63.2116 80.0094C63.2341 79.9859 63.2566 79.9859 63.2791 79.9859C65.9364 80.7864 67.7379 80.5509 69.697 78.4084C71.7012 76.2423 72.4444 73.8172 70.215 70.827C70.1925 70.8034 69.6295 70.0265 69.652 70.0265C71.2508 70.0736 72.5119 69.014 73.1875 68.0723C75.034 65.5765 74.9214 62.9395 72.9398 60.3496C73.818 59.4314 74.6737 58.5367 75.552 57.6184C76.8581 56.2528 78.0516 54.7695 79.0875 53.1449C81.5871 49.2365 82.8707 45.3752 82.9382 41.5845L91 33.1555L69.7421 11ZM21.7091 58.6309C19.2545 55.9232 17.4305 52.9566 16.6423 49.5662C16.4622 48.8363 16.327 48.0593 16.2595 47.2588C16.1919 46.5995 16.1919 45.9403 16.1919 45.281L8.01754 36.7343L25.5824 18.3695L31.2121 24.2556L31.5724 24.6324V24.703L34.2747 24.9384L34.4548 24.4675C35.5357 23.7141 39.972 21.1242 45.917 25.8567L53.7761 34.1209C54.1589 34.5447 54.3841 35.0862 54.3841 35.6748C54.3841 36.2634 54.1589 36.8285 53.7761 37.2288L53.2582 37.7703C52.425 38.6179 51.0964 38.6179 50.2857 37.7703L42.2464 29.3177L40.2873 30.7775L42.4716 33.4381L43.4174 34.4269C42.4941 35.3923 41.5708 36.3576 40.6476 37.3229C40.4224 37.5584 40.2872 37.8174 40.2197 38.0999C40.1747 38.147 40.1296 38.1941 40.0846 38.2412C34.68 43.8919 29.2529 49.5426 23.8709 55.2169C22.7675 56.347 22.0469 57.5007 21.7091 58.6309ZM47.7861 81.5398C47.1555 82.152 46.525 82.5287 45.6017 82.4581C44.3181 82.3639 43.4174 81.3279 42.8094 80.6922C42.4266 80.2919 42.0437 79.8917 41.6834 79.515C42.5842 79.0205 43.5075 78.3142 44.5208 77.443C45.1513 78.479 45.354 79.0912 46.57 79.8211C47.1105 80.1507 47.696 80.3861 48.2815 80.5509C48.1689 80.9512 48.0113 81.3279 47.7861 81.5398ZM59.3608 80.4097C58.1448 81.893 56.7711 82.0107 55.0147 80.3155C54.7444 80.0565 54.4742 79.774 54.204 79.515C54.5868 79.256 54.9471 78.9499 55.3074 78.5967C56.3208 77.5843 57.3116 76.5483 58.325 75.5124C58.4375 75.6301 58.5276 75.7243 58.6402 75.842C60.2841 77.6079 60.5093 78.997 59.3608 80.4097ZM67.7829 75.8185C66.5669 77.5608 64.6978 77.5843 63.0314 75.8655C62.1982 74.9944 61.3875 74.1232 60.5543 73.2756C61.928 71.8865 63.3017 70.4974 64.6528 69.0847C65.4184 69.8852 66.1841 70.6857 66.9722 71.5098C68.436 73.0402 68.6837 74.5235 67.7829 75.8185ZM71.1833 65.5294C70.5753 67.154 68.7287 67.9075 67.265 67.0834C67.1299 67.0128 66.9948 66.9186 66.8597 66.8009C68.1658 65.4353 69.4718 64.0697 70.8005 62.6805C71.3409 63.4575 71.6337 64.3287 71.1833 65.5294ZM79.7855 41.0665C79.8081 41.7493 79.7856 42.4086 79.718 43.0443C79.6504 43.8448 79.5153 44.6218 79.3352 45.3752C78.5245 48.7656 76.6779 51.7558 74.2234 54.4634C70.8905 58.1364 67.4001 61.6446 63.9772 65.2234C60.3742 68.9905 56.7937 72.7577 53.1906 76.4777C52.5601 77.1134 51.6819 78.1494 50.3983 78.2436C49.475 78.3142 48.8219 77.9375 48.2139 77.3253C47.651 76.7602 47.4708 75.3711 47.696 74.5C47.9212 73.5582 48.7319 72.7106 49.43 71.9571C51.0738 70.2148 52.7402 68.4725 54.3841 66.7538C55.1948 65.9062 55.983 65.0585 56.7937 64.2109C57.6494 63.2927 60.104 61.362 58.7303 60.02C57.4467 58.7721 55.6452 61.1737 54.8796 61.9742C54.0689 62.8218 53.2582 63.6694 52.4475 64.4935C48.6418 68.3783 44.9036 72.3103 40.9853 76.101C39.2289 77.8197 37.8327 77.6785 36.6392 76.1952C35.4907 74.7825 35.7159 73.3934 37.3823 71.6511C41.6834 67.1305 46.0071 62.6334 50.3082 58.1129C50.9162 57.4772 51.4341 57.0769 51.5467 56.1116C51.6368 55.4052 51.3891 54.7695 50.6685 54.6518C49.475 54.4635 48.9571 54.9343 48.2139 55.7349C43.1472 61.0324 38.0804 66.3535 32.9911 71.6511C31.3247 73.3934 29.4556 73.3463 28.2396 71.604C27.3388 70.309 27.5865 68.8257 29.0728 67.2717C34.2296 61.8565 39.3865 56.4647 44.5433 51.0966C45.3765 50.2254 46.0521 49.2365 45.0162 48.2241C44.0254 47.2588 43.1697 48.1064 42.4266 48.9069C38.4632 53.0743 34.4774 57.2182 30.4915 61.362C29.951 61.9036 29.4106 62.4686 28.7575 62.8453C27.2938 63.693 25.4472 62.916 24.8392 61.2914C24.2087 59.6433 25.0194 58.5838 26.0327 57.5243C32.6308 50.6492 39.2289 43.7742 45.7594 36.852L48.4616 39.7009C49.3849 40.6663 50.6009 41.1607 51.7944 41.1607C52.988 41.1607 54.204 40.6898 55.1273 39.7245L55.6452 39.183C56.546 38.2647 57.0189 37.0169 57.0414 35.6984C57.0414 34.4505 56.591 33.2968 55.8253 32.4021L49.7903 26.0686L48.6193 24.8443L50.2181 23.1726C52.6952 21.1948 54.9021 20.512 56.7261 20.4179C60.0589 20.1118 63.0089 21.9247 63.0089 21.9247L64.7879 20.0647L70.4176 14.1785L87.9825 32.5434L79.7855 41.0665Z" fill="url(#paint0_linear)"/>
<defs>
<linearGradient id="paint0_linear" x1="112.965" y1="85" x2="-30.9108" y2="84.9883" gradientUnits="userSpaceOnUse">
<stop stop-color="#0092CF"/>
<stop offset="1" stop-color="#56EBFF"/>
</linearGradient>
</defs>
</svg>
