<svg width="96" height="96" viewBox="0 0 96 96" fill="none" xmlns="http://www.w3.org/2000/svg">
<path d="M26.5511 87H69.4489C74.9794 87 79.5 82.6525 79.5 77.3338V50.9022C79.5 45.9997 75.7008 41.9529 70.7714 41.3285V30.8992C70.7714 18.828 60.5519 9 48 9C35.4481 9 25.2286 18.828 25.2286 30.8992V41.3516C20.2992 41.9529 16.5 45.9997 16.5 50.9022V77.3338C16.5 82.6525 20.9966 87 26.5511 87ZM20.2511 50.9022C20.2511 47.5722 23.0645 44.8435 26.5511 44.8435H69.4489C72.9114 44.8435 75.7489 47.5491 75.7489 50.9022V77.3338C75.7489 80.6638 72.9355 83.3925 69.4489 83.3925H26.5511C23.0885 83.3925 20.2511 80.6869 20.2511 77.3338V50.9022ZM48 12.6075C58.484 12.6075 67.0202 20.8168 67.0202 30.8992V41.2591H64.0145V30.8992C64.0145 22.4124 56.8248 15.4981 48 15.4981C39.1752 15.4981 31.9855 22.4124 31.9855 30.8992V41.2591H28.9798V30.8992C28.9798 20.8168 37.516 12.6075 48 12.6075ZM60.2634 41.236H35.7366V30.8992C35.7366 24.4011 41.2431 19.1055 48 19.1055C54.7569 19.1055 60.2634 24.4011 60.2634 30.8992V41.236Z" fill="url(#paint0_linear)"/>
<path d="M45.2766 73.9112H52.7789C53.5964 73.9112 54.2697 73.2638 54.2697 72.4775V55.7814C54.2697 54.9951 53.5964 54.3477 52.7789 54.3477H45.2766C44.435 54.3477 43.7617 54.9951 43.7617 55.7814V72.4775C43.7858 73.2638 44.459 73.9112 45.2766 73.9112ZM46.7915 57.2151H51.2881V71.0206H46.7915V57.2151Z" fill="url(#paint1_linear)"/>
<defs>
<linearGradient id="paint0_linear" x1="95.5905" y1="87" x2="-9.80676" y2="86.9941" gradientUnits="userSpaceOnUse">
<stop stop-color="#0092CF"/>
<stop offset="1" stop-color="#56EBFF"/>
</linearGradient>
<linearGradient id="paint1_linear" x1="56.9535" y1="73.9112" x2="39.3739" y2="73.9106" gradientUnits="userSpaceOnUse">
<stop stop-color="#0092CF"/>
<stop offset="1" stop-color="#56EBFF"/>
</linearGradient>
</defs>
</svg>
