<svg width="96" height="96" viewBox="0 0 96 96" fill="none" xmlns="http://www.w3.org/2000/svg">
<path d="M29.6855 25.1855C28.857 25.1855 28.1855 25.857 28.1855 26.6855C28.1855 27.5139 28.857 28.1855 29.6855 28.1855V25.1855ZM66.981 28.1855C67.8094 28.1855 68.481 27.5139 68.481 26.6855C68.481 25.857 67.8094 25.1855 66.981 25.1855V28.1855ZM29.6855 34.8629C28.857 34.8629 28.1855 35.5345 28.1855 36.3629C28.1855 37.1913 28.857 37.8629 29.6855 37.8629V34.8629ZM48.8959 37.8629C49.7243 37.8629 50.3959 37.1913 50.3959 36.3629C50.3959 35.5345 49.7243 34.8629 48.8959 34.8629V37.8629ZM29.6855 44.5403C28.857 44.5403 28.1855 45.2119 28.1855 46.0403C28.1855 46.8688 28.857 47.5403 29.6855 47.5403V44.5403ZM66.981 47.5403C67.8094 47.5403 68.481 46.8688 68.481 46.0403C68.481 45.2119 67.8094 44.5403 66.981 44.5403V47.5403ZM29.6855 54.2178C28.857 54.2178 28.1855 54.8894 28.1855 55.7178C28.1855 56.5462 28.857 57.2178 29.6855 57.2178V54.2178ZM42.8675 57.2178C43.6959 57.2178 44.3675 56.5462 44.3675 55.7178C44.3675 54.8894 43.6959 54.2178 42.8675 54.2178V57.2178ZM29.6855 63.8952C28.857 63.8952 28.1855 64.5668 28.1855 65.3952C28.1855 66.2236 28.857 66.8952 29.6855 66.8952V63.8952ZM47.6902 66.8952C48.5186 66.8952 49.1902 66.2236 49.1902 65.3952C49.1902 64.5668 48.5186 63.8952 47.6902 63.8952V66.8952ZM56.2104 34.8629C55.382 34.8629 54.7104 35.5345 54.7104 36.3629C54.7104 37.1913 55.382 37.8629 56.2104 37.8629V34.8629ZM66.9811 37.8629C67.8095 37.8629 68.4811 37.1913 68.4811 36.3629C68.4811 35.5345 67.8095 34.8629 66.9811 34.8629V37.8629ZM48.977 54.2178C48.1486 54.2178 47.477 54.8894 47.477 55.7178C47.477 56.5462 48.1486 57.2178 48.977 57.2178V54.2178ZM56.1307 57.2178C56.9591 57.2178 57.6307 56.5462 57.6307 55.7178C57.6307 54.8894 56.9591 54.2178 56.1307 54.2178V57.2178ZM22.4917 12.5H74.1749V9.5H22.4917V12.5ZM75.1667 13.5V83.5H78.1667V13.5H75.1667ZM21.5 83.5V13.5H18.5V83.5H21.5ZM22.4917 84.5C21.9487 84.5 21.5 84.057 21.5 83.5H18.5C18.5 85.7044 20.2825 87.5 22.4917 87.5V84.5ZM75.1667 83.5C75.1667 84.057 74.718 84.5 74.1749 84.5V87.5C76.3842 87.5 78.1667 85.7044 78.1667 83.5H75.1667ZM74.1749 12.5C74.718 12.5 75.1667 12.943 75.1667 13.5H78.1667C78.1667 11.2956 76.3842 9.5 74.1749 9.5V12.5ZM22.4917 9.5C20.2825 9.5 18.5 11.2956 18.5 13.5H21.5C21.5 12.943 21.9487 12.5 22.4917 12.5V9.5ZM29.6855 28.1855H66.981V25.1855H29.6855V28.1855ZM29.6855 37.8629H48.8959V34.8629H29.6855V37.8629ZM29.6855 47.5403H66.981V44.5403H29.6855V47.5403ZM29.6855 57.2178H42.8675V54.2178H29.6855V57.2178ZM29.6855 66.8952H47.6902V63.8952H29.6855V66.8952ZM56.2104 37.8629H66.9811V34.8629H56.2104V37.8629ZM48.977 57.2178H56.1307V54.2178H48.977V57.2178ZM74.1749 84.5H48.3333V87.5H74.1749V84.5ZM48.3333 84.5H22.4917V87.5H48.3333V84.5Z" fill="url(#paint0_linear)"/>
<defs>
<linearGradient id="paint0_linear" x1="91.1396" y1="86" x2="-3.66216" y2="85.995" gradientUnits="userSpaceOnUse">
<stop stop-color="#0092CF"/>
<stop offset="1" stop-color="#56EBFF"/>
</linearGradient>
</defs>
</svg>
