<svg width="96" height="96" viewBox="0 0 96 96" fill="none" xmlns="http://www.w3.org/2000/svg">
<g clip-path="url(#clip0)">
<path d="M72.2916 78.1358C71.7052 74.3181 68.9576 71.4834 64.5199 70.1575C63.6577 69.906 62.646 69.7003 61.5538 69.4945C60.5881 69.3117 59.5764 69.1174 58.5992 68.8659C58.5762 68.8659 58.5647 68.8545 58.5417 68.8545C58.1278 68.7402 57.7139 68.6144 57.3116 68.4658C57.2426 68.443 57.1851 68.4201 57.1161 68.3973C56.7023 68.2372 56.2999 68.0658 55.9435 67.86C54.6559 67.1285 54.242 63.3565 54.3225 60.6704C54.6904 60.3618 55.0927 60.0189 55.5181 59.6189C59.289 56.1441 60.4271 55.0925 61.4273 52.7264C61.6688 52.8064 61.9332 52.8522 62.2091 52.8522C62.3241 52.8522 62.462 52.8407 62.6115 52.8064C62.9449 53.0236 63.3243 53.1608 63.7381 53.1608H65.0257C65.2902 53.1608 65.5431 53.1036 65.7845 53.0008H66.2329C68.7621 52.9665 70.6705 49.6403 70.6705 45.2511C70.6705 41.5934 69.3599 38.6901 67.463 37.7986C67.8769 33.5694 67.6929 27.7286 64.7038 23.3051C64.198 22.5621 63.6347 21.9106 63.0138 21.3048C63.4967 20.5847 63.8761 19.7274 64.129 18.733C64.7958 16.1155 64.29 13.7494 62.6575 11.932C61.2664 10.3775 59.1395 9.23451 56.3229 8.52583C50.0113 6.93704 45.8495 8.84588 44.5964 13.8294C44.4584 14.3781 44.3895 14.9039 44.3435 15.4182C41.9522 15.624 39.6184 16.3098 37.3881 17.4757C28.8461 21.9449 28.0989 31.6148 28.6162 37.7757C26.6848 38.6444 25.3397 41.5706 25.3397 45.2625C25.3397 49.6631 27.2366 52.9779 29.7659 53.0122C29.7659 53.0122 29.7659 53.0122 29.7774 52.9893H30.1108C30.1797 53.0236 30.2487 53.0351 30.3177 53.0693C31.8467 54.8867 34.238 56.1326 37.4685 56.8185C38.2388 57.5843 39.2045 58.4758 40.4806 59.6417C40.906 60.0303 41.2969 60.3732 41.6763 60.6819C41.7568 63.368 41.3429 67.1399 40.0668 67.8715C38.5722 68.7173 36.3994 69.1288 34.4565 69.506C33.3758 69.7117 32.3526 69.906 31.4903 70.1689C27.0527 71.4948 24.305 74.3181 23.7187 78.1472C23.1439 81.9078 23.1094 86.8113 23.1094 87.0171C23.1094 87.2799 23.2128 87.5314 23.3968 87.7143C23.5807 87.8972 23.8337 88.0001 24.0981 88.0001H71.9122C72.1766 88.0001 72.4295 87.8972 72.6135 87.7143C72.7859 87.5428 72.8779 87.3142 72.8894 87.0628V86.2627C72.8549 84.7196 72.7399 81.0848 72.2916 78.1358ZM67.3021 40.1875C68.0608 41.1476 68.6816 42.9879 68.6816 45.2625C68.6816 47.5257 68.0608 49.3774 67.3021 50.3375V40.1875ZM28.6852 46.897V49.8689V50.3147C27.9264 49.3545 27.3056 47.5028 27.3056 45.2511C27.3056 42.9879 27.9264 41.1362 28.6852 40.1761V46.897ZM65.3247 41.6849V42.8164V42.8507V43.9823V46.9313V48.8859V50.6004V50.6119C65.3247 50.989 65.1177 51.2177 65.0257 51.2177H64.5199H64.3819H63.7381C63.6692 51.2177 63.5312 51.0805 63.4737 50.8405C63.4507 50.7719 63.4392 50.6919 63.4392 50.6119V49.6974V48.2001V45.4683V45.0568V43.4794V42.4964V42.485V41.7077V40.839V39.9475C63.4392 39.5588 63.6462 39.3417 63.7381 39.3417H63.8301H64.4969H64.8303H65.0257C65.0832 39.3417 65.1637 39.4331 65.2327 39.5703C65.2787 39.6617 65.3132 39.7874 65.3132 39.936C65.3132 39.9475 65.3132 39.9475 65.3132 39.9589V41.6849H65.3247ZM46.5048 14.3209C47.2406 11.3834 49.126 9.95461 52.2761 9.95461C53.3453 9.95461 54.5409 10.1261 55.8285 10.4461C58.2198 11.0519 60.0592 12.012 61.1744 13.2579C62.3815 14.6067 62.7264 16.2412 62.2091 18.2644C62.0366 18.9616 61.7952 19.556 61.4963 20.0703C59.5074 18.6644 57.0586 17.7729 54.15 17.4185C53.3568 16.9728 50.4022 15.4983 46.3094 15.384C46.3554 15.0411 46.4129 14.6981 46.5048 14.3209ZM38.2848 19.2474C40.2737 18.2072 42.3546 17.6128 44.4584 17.43C44.7918 17.3957 45.1252 17.3728 45.4586 17.3728C45.5851 17.3728 45.7001 17.35 45.8265 17.35C46.0565 17.35 46.2749 17.3614 46.4933 17.3728C46.7118 17.3842 46.9302 17.3957 47.1486 17.4185C49.6319 17.6243 51.5633 18.3787 52.552 18.8473C53.0234 19.0645 53.2878 19.2245 53.2993 19.2359C53.4257 19.3045 53.5637 19.3502 53.7132 19.3731C54.127 19.4188 54.5179 19.4874 54.9088 19.556C56.6218 19.8646 58.1393 20.3904 59.4499 21.1448C59.6569 21.2705 59.8638 21.3962 60.0707 21.5334L60.8985 22.1506C61.1629 22.3678 61.4158 22.5964 61.6573 22.825C62.1631 23.3279 62.6345 23.8652 63.0483 24.4595C64.3015 26.2998 64.9798 28.4601 65.3247 30.6433C65.0947 30.1746 64.8533 29.7174 64.5889 29.2717C63.8646 28.0486 63.0024 26.917 62.0366 25.8769C61.3239 25.1225 60.5536 24.4252 59.7373 23.7966C59.4039 23.5451 59.0705 23.2822 58.7256 23.0422C58.6107 22.9622 58.4957 22.905 58.3807 22.8364C58.0473 22.6307 57.7254 22.425 57.3805 22.2306C54.7363 20.7562 51.7013 19.8875 48.4822 19.8074C48.3213 19.8074 48.1603 19.7846 47.9994 19.7846C47.643 19.7846 47.2981 19.8189 46.9417 19.8417C46.5163 19.8646 46.1024 19.8875 45.6886 19.9446C42.7225 20.2989 39.9748 21.3277 37.572 22.8822C36.2499 23.728 35.0428 24.7453 33.9736 25.8769C32.9964 26.9056 32.1457 28.0486 31.4214 29.2717C31.2604 29.546 31.0995 29.8203 30.95 30.0946C31.7203 25.854 33.7322 21.6248 38.2848 19.2474ZM32.548 40.7362V40.8276V41.6849V42.4735V43.4451V43.468V48.2344V49.686V50.589C32.548 50.6576 32.5365 50.7262 32.525 50.7833C32.4676 51.0462 32.3296 51.1948 32.2491 51.1948H31.6168H31.4674H31.3869H30.973C30.881 51.1948 30.6741 50.9662 30.6741 50.589V49.686V48.863V46.8856V43.9709V42.8393V42.8279V41.6849V39.9246V39.9132C30.6741 39.7074 30.7316 39.5588 30.8006 39.456C30.858 39.3645 30.927 39.3188 30.9615 39.3188H31.1569H31.4903H32.1571H32.2491C32.3411 39.3188 32.548 39.5474 32.548 39.9246V40.7362ZM32.2376 37.3414H31.9502H30.9615C30.8925 37.3414 30.835 37.3528 30.7776 37.3642C30.8121 37.0671 30.858 36.7699 30.904 36.4841C31.0995 35.2039 31.4214 33.958 31.8812 32.7807C32.2491 31.8206 32.709 30.9176 33.2378 30.0489C36.2614 25.1111 41.6878 21.7963 47.8729 21.7506C47.9189 21.7506 47.9534 21.7392 47.9994 21.7392C48.9536 21.7392 49.8848 21.842 50.793 21.9906C51.9427 22.1735 53.0464 22.4707 54.104 22.8707C55.0467 23.2251 55.9435 23.6594 56.8057 24.1624C59.2315 25.6026 61.2664 27.6028 62.7379 29.9918C63.2783 30.8719 63.7496 31.7977 64.129 32.7807C64.5889 33.958 64.9223 35.2039 65.1062 36.4955C65.1522 36.7813 65.1982 37.0671 65.2327 37.3642C65.1752 37.3528 65.1062 37.3414 65.0487 37.3414H65.0372H64.06H63.7496C63.4967 37.3414 63.2668 37.3985 63.0368 37.49C62.6345 37.6386 62.2896 37.9129 62.0251 38.2787C61.2204 37.5014 60.1857 36.6441 58.8981 35.6954C56.001 33.5466 54.7823 30.3804 54.7708 30.3575C54.6329 29.9918 54.2995 29.7517 53.9086 29.7174C53.5062 29.706 53.1498 29.9003 52.9659 30.2432C52.9314 30.3004 49.8503 35.8783 42.4465 37.3642C38.6757 38.1186 36.135 38.7702 34.4794 39.5131C34.3415 38.5644 33.7437 37.7986 32.9504 37.5014C32.7205 37.3985 32.4905 37.3414 32.2376 37.3414ZM33.1459 52.9665C33.2263 52.9208 33.3068 52.875 33.3758 52.8179C33.5252 52.8407 33.6632 52.8636 33.7782 52.8636C34.0656 52.8636 34.3185 52.8179 34.5599 52.7379C34.7669 53.2294 34.9853 53.6637 35.2267 54.0866C34.445 53.7666 33.7437 53.3894 33.1459 52.9665ZM35.3072 50.3947C35.0313 50.3147 34.7554 50.3832 34.5139 50.5433V45.4568C34.5139 45.3882 34.5254 45.3082 34.5254 45.2397C34.5254 45.1711 34.5139 45.0911 34.5139 45.0225V41.6849C35.7556 40.8962 38.4343 40.1189 42.8374 39.2388C48.7466 38.0615 52.1611 34.6324 53.7132 32.6207C54.4489 33.9237 55.7365 35.764 57.7254 37.2385C59.4959 38.553 60.7375 39.6503 61.4848 40.5533V45.2511V50.5433C61.2434 50.3832 60.956 50.3147 60.6801 50.3947C60.3696 50.4747 60.1167 50.7033 60.0133 51.0005C59.0246 53.7323 58.3807 54.3267 54.2075 58.1672C53.7706 58.5673 53.3798 58.9102 53.0234 59.2074C51.4483 60.5218 50.4711 61.0019 49.6089 61.1734C49.1145 61.2762 48.6547 61.2762 48.1373 61.2762H47.9994H47.8844C47.3786 61.2762 46.9187 61.2762 46.4358 61.1734C45.5736 61.0019 44.5964 60.5218 43.0099 59.2074C42.642 58.9102 42.2511 58.5558 41.8142 58.1672C41.4578 57.8357 41.1244 57.5386 40.814 57.2528C41.0095 57.2642 41.1819 57.2985 41.3774 57.31C41.7453 58.1444 42.596 58.7159 43.6077 58.7159H48.4937C49.8273 58.7159 50.908 57.6871 50.908 56.4298C50.908 55.1268 49.8273 54.0981 48.4937 54.0981H43.6077C42.6765 54.0981 41.8832 54.601 41.4808 55.3211C40.3887 55.2411 39.3655 55.1154 38.4228 54.9439C37.0892 53.5494 36.6293 52.6922 36.02 50.989C35.8705 50.7147 35.6176 50.4747 35.3072 50.3947ZM43.1363 56.4527C43.1363 56.2698 43.3203 56.0984 43.5847 56.0984H44.9298H48.4707C48.7352 56.0984 48.9191 56.2698 48.9191 56.4184C48.9191 56.6013 48.7352 56.7727 48.4707 56.7727H44.9298H43.5732C43.3088 56.7613 43.1363 56.5898 43.1363 56.4527ZM47.8844 63.2651H47.9419L47.9994 62.2821L48.0569 63.2651C49.5054 63.2651 50.6896 63.1508 52.3451 62.1449C52.3911 63.9852 52.667 66.557 53.6672 68.2372C52.4715 68.8887 50.2757 69.906 48.0454 69.906C45.8035 69.906 43.5272 68.8316 42.3431 68.1801C43.3203 66.4998 43.5847 63.9509 43.6307 62.1335C45.3322 63.1736 46.4703 63.2651 47.8844 63.2651ZM40.9865 69.666C42.1821 70.3632 45.0793 71.872 48.0684 71.872C51.1149 71.872 53.9661 70.3747 55.1502 69.666C55.3801 69.7917 55.6331 69.8832 55.8745 69.9975C56.2884 70.1804 56.7023 70.3404 57.1391 70.4775C57.2886 70.5233 57.4495 70.5919 57.599 70.6376L48.0684 81.0733L38.5377 70.6376C39.3655 70.3861 40.2277 70.0775 40.9865 69.666ZM25.0983 86.0455C25.1328 84.411 25.2592 81.0733 25.6616 78.433C26.2594 74.5467 29.467 72.8093 32.0537 72.0435C32.8125 71.8149 33.7897 71.632 34.8128 71.4377C35.3072 71.3462 35.813 71.2434 36.3304 71.1405L47.3211 83.1879C47.505 83.3937 47.7809 83.508 48.0569 83.508C48.3328 83.508 48.5972 83.3937 48.7926 83.1879L59.7718 71.1519C60.2432 71.2548 60.726 71.3462 61.1859 71.4377C62.2091 71.632 63.1863 71.8263 63.9451 72.0435C66.5433 72.8207 69.7393 74.5581 70.3371 78.433C70.7395 81.0619 70.866 84.411 70.912 86.0455H25.0983Z" fill="url(#paint0_linear)"/>
</g>
<defs>
<linearGradient id="paint0_linear" x1="85.6035" y1="88" x2="2.32286" y2="87.9964" gradientUnits="userSpaceOnUse">
<stop stop-color="#0092CF"/>
<stop offset="1" stop-color="#56EBFF"/>
</linearGradient>
<clipPath id="clip0">
<rect x="23.1094" y="8" width="49.78" height="80" fill="white"/>
</clipPath>
</defs>
</svg>
