<svg id="Layer_1" data-name="Layer 1" xmlns="http://www.w3.org/2000/svg" viewBox="0 0 1114.41 405.26"><defs><style>.cls-1{fill:#fff;}</style></defs><title>Artboard 4</title><path class="cls-1" d="M155.14,113A97.55,97.55,0,0,0,62,181.65a193.72,193.72,0,0,1,76.4,96.72,184.06,184.06,0,0,1,114.19-64.79c0-1,.08-2,.08-3A97.51,97.51,0,0,0,155.14,113Z"/><path class="cls-1" d="M359.22,199.17a138.8,138.8,0,0,0-36,17.33c-.87.59-1.75,1.17-2.61,1.78a160.12,160.12,0,0,1,69,40.76V193.22A138.85,138.85,0,0,0,359.22,199.17Z"/><path class="cls-1" d="M301.09,235A139.49,139.49,0,0,0,157,300q6.75,3.2,13.21,6.89a195.15,195.15,0,0,1,85,98.34h97.67a36.8,36.8,0,0,0,36.8-36.8V291.09A139.45,139.45,0,0,0,301.09,235Z"/><path class="cls-1" d="M148.18,319.37l-.83-.38q-2.54-1.19-5.13-2.3a55.16,55.16,0,0,1-42.55,48.8,45.65,45.65,0,0,1-54.73-34.33,38.21,38.21,0,0,1,28.68-45.73,32.2,32.2,0,0,1,38.53,24.17A27.35,27.35,0,0,1,91.6,342.37a23.5,23.5,0,0,1-28.16-17.66,8.12,8.12,0,0,1,15.82-3.63A7.27,7.27,0,0,0,88,326.55a11.11,11.11,0,0,0,8.36-13.32,16,16,0,0,0-19.08-12,22,22,0,0,0-16.48,26.28A29.48,29.48,0,0,0,96,349.67,38.89,38.89,0,0,0,126,307.44q-.45-2.07-.93-4.13c-.38-1.58-.76-3.16-1.17-4.73q-1.57-5.87-3.53-11.57a173.68,173.68,0,0,0-62.37-84,173.23,173.23,0,0,0-22.77-13.94q-2.33-1.19-4.7-2.31A172,172,0,0,0,0,175.74V368.45a36.8,36.8,0,0,0,36.8,36.8H232.1A173.91,173.91,0,0,0,148.18,319.37Z"/><path class="cls-1" d="M776.72,212.15h11.1L799.07,245l2,6.92h.61l2.13-6.92,11.7-32.83h11.1l-19.84,54.42H796Z"/><path class="cls-1" d="M833.88,212.15h10.26v54.42H833.88Z"/><path class="cls-1" d="M856.53,212.15H891v9.73H866.79V234.5H888.6v9.73H866.79v12.62H891v9.73H856.53Z"/><path class="cls-1" d="M913.38,221.88h-15.2v-9.73h40.66v9.73h-15.2v44.69H913.38Z"/><path class="cls-1" d="M947,212.15H959l21.89,36.48h.61l-.61-10.49v-26h10.18v54.42H980.26L957.15,228h-.61l.61,10.49v28H947Z"/><path class="cls-1" d="M1018.79,212.15h11.78L1051,266.57h-11.33l-4.56-13h-20.82l-4.56,13H998.42Zm13,32L1027,230.47l-2-6.54h-.61l-2,6.54-4.87,13.68Z"/><path class="cls-1" d="M1058.39,212.15h13.22l14.44,38.23h.61l14.44-38.23h13.3v54.42h-10.18V239.74l.61-9h-.61l-13.83,35.87h-8L1068.5,230.7h-.61l.61,9v26.83h-10.11Z"/><path class="cls-1" d="M470.7,375.11a35.58,35.58,0,0,1-18.92-5.2,36.59,36.59,0,0,1-13.42-14.47,48.07,48.07,0,0,1,0-42.29,36.47,36.47,0,0,1,13.42-14.55,35.58,35.58,0,0,1,18.92-5.2,27.81,27.81,0,0,1,13.87,3.39,25.3,25.3,0,0,1,9.2,8.37H495l-1.21-10.85V264.75h19.6V372.69H495v-9.2h-1.21a23.36,23.36,0,0,1-9.12,8.29A28.77,28.77,0,0,1,470.7,375.11ZM474,356.86a20,20,0,0,0,10.4-2.86,21,21,0,0,0,7.69-8,25.57,25.57,0,0,0,0-23.52A20.52,20.52,0,0,0,474,311.79a20.17,20.17,0,0,0-10.25,2.79,20.45,20.45,0,0,0-7.69,7.91,25.57,25.57,0,0,0,0,23.52,21,21,0,0,0,7.69,8A19.75,19.75,0,0,0,474,356.86Z"/><path class="cls-1" d="M540.19,287.37a12.87,12.87,0,0,1-12.81-12.81,12.1,12.1,0,0,1,3.77-9,12.46,12.46,0,0,1,9-3.69,12.61,12.61,0,0,1,12.66,12.66,12.46,12.46,0,0,1-3.69,9A12.1,12.1,0,0,1,540.19,287.37Zm-10,8.44H550v76.89H530.24Z"/><path class="cls-1" d="M596,375.11q-14,0-22.69-5.73a30.48,30.48,0,0,1-12.14-14.93l17.64-7.69a18,18,0,0,0,6.86,8.22A19,19,0,0,0,596,357.77a20.88,20.88,0,0,0,9-1.73,5.85,5.85,0,0,0,3.62-5.65,6.12,6.12,0,0,0-3.32-5.65,38.17,38.17,0,0,0-10-3.39l-9-2a33.06,33.06,0,0,1-15.53-8.22,19.76,19.76,0,0,1-6.18-14.85,19.23,19.23,0,0,1,4-11.91,25.66,25.66,0,0,1,10.85-8.14,39,39,0,0,1,15.15-2.86q23.82,0,31.81,16.73l-16.88,7.39q-4.52-8.14-14.47-8.14a15.25,15.25,0,0,0-8.14,1.89q-3,1.89-3,4.75,0,5.43,10.25,8.14l11.31,2.71q11.46,2.86,17.26,8.74a19.81,19.81,0,0,1,5.8,14.47,21,21,0,0,1-4.3,13,28.23,28.23,0,0,1-11.76,8.82A41.84,41.84,0,0,1,596,375.11Z"/><path class="cls-1" d="M676,375.11a41.5,41.5,0,0,1-20.8-5.2,37.1,37.1,0,0,1-14.4-14.55,45.28,45.28,0,0,1,0-42.14,37.8,37.8,0,0,1,14.4-14.55A41.05,41.05,0,0,1,676,293.4q12.81,0,22,5.5a31.35,31.35,0,0,1,13.27,15.6L693.21,322q-4.83-10.25-17.19-10.25A19.47,19.47,0,0,0,661.17,318q-5.8,6.18-5.8,16.28,0,10.25,5.8,16.43A19.46,19.46,0,0,0,676,356.86q12.51,0,18.09-10.85L712,353.85a37,37,0,0,1-14.17,15.68Q688.68,375.1,676,375.11Z"/><path class="cls-1" d="M758.48,375.11a42,42,0,0,1-21.26-5.35,38,38,0,0,1-14.55-14.62,44.36,44.36,0,0,1,0-41.68,37.87,37.87,0,0,1,14.55-14.7,44.59,44.59,0,0,1,42.36,0,37.87,37.87,0,0,1,14.55,14.7,44.35,44.35,0,0,1,0,41.68,38,38,0,0,1-14.55,14.62A41.73,41.73,0,0,1,758.48,375.11Zm0-18.24A21.16,21.16,0,0,0,769,354.15a19.9,19.9,0,0,0,7.69-7.84,24.33,24.33,0,0,0,2.86-12.06,24,24,0,0,0-2.86-11.91A19.92,19.92,0,0,0,769,314.5a21.88,21.88,0,0,0-21.11,0,20.43,20.43,0,0,0-7.76,7.84,23.52,23.52,0,0,0-2.94,11.91,23.94,23.94,0,0,0,2.94,12,20.28,20.28,0,0,0,7.76,7.91A21.15,21.15,0,0,0,758.48,356.86Z"/><path class="cls-1" d="M799.79,295.81h22.46l19.45,50.05h1.21l19.75-50.05h22.16l-32.86,76.89h-19.6Z"/><path class="cls-1" d="M925.52,375.11a40.75,40.75,0,0,1-20.65-5.28,37.78,37.78,0,0,1-14.4-14.55,43.89,43.89,0,0,1-.07-41.31,39.49,39.49,0,0,1,14.17-15,37.73,37.73,0,0,1,20.2-5.58q11.91,0,20.5,5.13a33.43,33.43,0,0,1,13,14,43.56,43.56,0,0,1,4.45,19.75,46.88,46.88,0,0,1-.45,6.63H904.56q1.51,9.2,7.31,13.95a21.32,21.32,0,0,0,13.95,4.75,22.3,22.3,0,0,0,11.68-2.94,21.72,21.72,0,0,0,7.76-7.92l16,7.84Q949.49,375.11,925.52,375.11Zm18.24-50.2a15.29,15.29,0,0,0-2.64-7.16,18.45,18.45,0,0,0-6.48-5.88,19.49,19.49,0,0,0-9.72-2.34,18.52,18.52,0,0,0-12.14,4.15,23.25,23.25,0,0,0-7.31,11.23Z"/><path class="cls-1" d="M974.21,295.81h18.54v10.25H994a22.73,22.73,0,0,1,8.89-9,25.73,25.73,0,0,1,13.27-3.54,27,27,0,0,1,9.65,1.66V315a64.36,64.36,0,0,0-6.86-2.19,25.15,25.15,0,0,0-6-.68q-8.75,0-13.87,6.33t-5.13,16v38.29H974.21Z"/><path class="cls-1" d="M1062.09,369.08l-32.41-73.27h22.46L1072,343.6h1.21l19.15-47.79h22l-47.49,109.45h-21.26Z"/><path class="cls-1" d="M336.48,160.37c-16.81.18-32.07-7-39.94-20.67C285.74,121,292.37,96.3,311,79.92,293.17,91.8,271.37,93,256.2,81.22,239.32,68.09,236,43.06,246.78,21h0c-8.23,17.9-24,30-42.1,30-24.55,0-44.79-22.25-47.78-51h-.79c-3,28.77-23.23,51-47.78,51-17.72,0-33.2-11.6-41.56-28.87l-.23-.51h0c10.37,21.89,7,46.56-9.7,59.56C41.63,93,19.83,91.8,2,79.92,20.63,96.3,27.26,121,16.46,139.71a39.32,39.32,0,0,1-15.77,15A173.23,173.23,0,0,1,41,168.82,121.32,121.32,0,0,1,276.4,210c0,.18,0,.35,0,.53a66.85,66.85,0,0,1,25.1,2.81,39,39,0,0,1-1.09-18.82C303.67,177.4,318,164.75,336.48,160.37Z"/></svg>