<svg width="96" height="96" viewBox="0 0 96 96" fill="none" xmlns="http://www.w3.org/2000/svg">
<path d="M40.315 37.3375H8.67962C7.67104 37.3375 6.86133 36.5456 6.86133 35.5592C6.86133 34.5729 7.67104 33.781 8.67962 33.781H40.3008C41.3094 33.781 42.1191 34.5729 42.1191 35.5592C42.1333 36.5456 41.3094 37.3375 40.315 37.3375Z" fill="url(#paint0_linear)"/>
<path d="M37.2466 48.8961H19.1347C18.1261 48.8961 17.3164 48.1042 17.3164 47.1178C17.3164 46.1315 18.1261 45.3396 19.1347 45.3396H37.2466C38.2551 45.3396 39.0648 46.1315 39.0648 47.1178C39.0648 48.1042 38.2409 48.8961 37.2466 48.8961Z" fill="url(#paint1_linear)"/>
<path d="M65.7847 50.2992C64.7763 50.2992 63.9668 49.5074 63.9668 48.521V33.017C63.9668 32.0306 64.7763 31.2388 65.7847 31.2388C66.7931 31.2388 67.6027 32.0306 67.6027 33.017V48.521C67.6027 49.5074 66.7931 50.2992 65.7847 50.2992Z" fill="url(#paint2_linear)"/>
<path d="M75.6593 54.9811C75.1479 55.2173 74.5371 55.2173 74.0115 54.9255L64.9201 50.0493C64.0393 49.5769 63.7268 48.4933 64.1956 47.632C64.6786 46.7707 65.7866 46.465 66.6673 46.9235L75.7588 51.7997C76.6395 52.2721 76.952 53.3557 76.4833 54.217C76.2844 54.5643 75.9861 54.8283 75.6593 54.9811Z" fill="url(#paint3_linear)"/>
<path d="M68.0723 24.5564H68.6688C68.5694 24.5564 68.4699 24.5425 68.3705 24.5425C68.2711 24.5425 68.1717 24.5564 68.0723 24.5564Z" fill="url(#paint4_linear)"/>
<path d="M46.7784 58.1483C46.7358 58.0095 46.6648 57.8845 46.5938 57.7595C46.6506 57.8845 46.7216 58.0095 46.7784 58.1483Z" fill="url(#paint5_linear)"/>
<path d="M69.7058 21.0556C69.2939 21.0417 68.8819 21 68.4557 21H68.2711H1.81829C0.809707 21 0 21.7919 0 22.7782C0 23.7646 0.809707 24.5565 1.81829 24.5565H54.7049H68.058C68.1574 24.5565 68.2569 24.5426 68.3563 24.5426C68.4557 24.5426 68.5552 24.5565 68.6546 24.5565C81.7378 24.7232 92.335 35.1703 92.335 47.9931C92.335 60.9269 81.5815 71.4435 68.3563 71.4435C58.8529 71.4435 50.6564 65.9977 46.7783 58.1484C46.7215 58.0234 46.6505 57.8984 46.5937 57.7595C46.2669 57.2593 45.7271 56.8981 45.0737 56.8981H42.332H31.3229C30.3143 56.8981 29.5046 57.69 29.5046 58.6764C29.5046 59.6627 30.3143 60.4546 31.3229 60.4546H43.9088C48.5256 69.0818 57.7449 75 68.3847 75C83.6129 75 96 62.8858 96 47.9931C95.9716 33.5449 84.309 21.7502 69.7058 21.0556Z" fill="url(#paint6_linear)"/>
<defs>
<linearGradient id="paint0_linear" x1="51.1243" y1="37.3375" x2="-7.86122" y2="37.2967" gradientUnits="userSpaceOnUse">
<stop stop-color="#0092CF"/>
<stop offset="1" stop-color="#56EBFF"/>
</linearGradient>
<linearGradient id="paint1_linear" x1="44.6195" y1="48.8961" x2="8.23497" y2="48.8806" gradientUnits="userSpaceOnUse">
<stop stop-color="#0092CF"/>
<stop offset="1" stop-color="#56EBFF"/>
</linearGradient>
<linearGradient id="paint2_linear" x1="68.5313" y1="50.2992" x2="62.4486" y2="50.2991" gradientUnits="userSpaceOnUse">
<stop stop-color="#0092CF"/>
<stop offset="1" stop-color="#56EBFF"/>
</linearGradient>
<linearGradient id="paint3_linear" x1="79.9496" y1="55.1518" x2="58.6663" y2="55.1496" gradientUnits="userSpaceOnUse">
<stop stop-color="#0092CF"/>
<stop offset="1" stop-color="#56EBFF"/>
</linearGradient>
<linearGradient id="paint4_linear" x1="68.8211" y1="24.5564" x2="67.8232" y2="24.5534" gradientUnits="userSpaceOnUse">
<stop stop-color="#0092CF"/>
<stop offset="1" stop-color="#56EBFF"/>
</linearGradient>
<linearGradient id="paint5_linear" x1="46.8255" y1="58.1483" x2="46.5167" y2="58.1483" gradientUnits="userSpaceOnUse">
<stop stop-color="#0092CF"/>
<stop offset="1" stop-color="#56EBFF"/>
</linearGradient>
<linearGradient id="paint6_linear" x1="120.519" y1="75" x2="-40.0865" y2="74.9801" gradientUnits="userSpaceOnUse">
<stop stop-color="#0092CF"/>
<stop offset="1" stop-color="#56EBFF"/>
</linearGradient>
</defs>
</svg>
