<svg width="96" height="96" viewBox="0 0 96 96" fill="none" xmlns="http://www.w3.org/2000/svg">
<g clip-path="url(#clip0)">
<mask id="path-3-inside-1" fill="white">
<path d="M86.6562 68.4311C86.6562 68.4155 86.6406 68.3999 86.6406 68.3843C85.2031 65.0249 81.8281 63.7749 77.8438 65.1343L66.9531 68.1499C66.3281 66.2436 64.75 64.6186 62.5312 63.7905C62.5156 63.7905 62.5 63.7749 62.4844 63.7749L50.5156 59.7124C49.5156 58.4312 46.4062 55.1343 40.5625 55.1343C36.4844 55.1343 32.875 57.9311 30.7969 60.9936H16.3438C15.4844 60.9936 14.7812 61.6968 14.7812 62.5561V82.2593C14.7812 83.1186 15.4844 83.8218 16.3438 83.8218H25.6406C26.5 83.8218 27.2031 83.1186 27.2031 82.2593V80.9155H31.5625C32.4219 80.9155 33.125 80.2124 33.125 79.353V78.8999C35.6719 79.1186 36.5 79.603 38.8281 80.9468C40.625 81.978 43.3281 83.5405 48.2188 85.7436C48.2344 85.7593 48.2656 85.7593 48.2812 85.7749C49.2188 86.1499 51.0469 86.728 53.3125 86.728C54.8906 86.728 56.6563 86.4468 58.4844 85.6186L82.5469 77.0093C82.5938 76.9936 82.625 76.978 82.6719 76.9624C84.9688 75.8686 88.3906 72.8843 86.6562 68.4311ZM24.0781 80.6811H17.9062V64.1186H24.0781V80.6811ZM29.9844 77.7749H27.2031V64.1186H30V77.7749H29.9844ZM81.4219 74.0718L57.375 82.6811C57.3594 82.6811 57.3281 82.6968 57.2969 82.7124C57.2812 82.728 57.25 82.728 57.2344 82.7436C53.8906 84.2905 50.7031 83.3686 49.4531 82.8686C44.7344 80.7436 42.2188 79.2905 40.375 78.228C37.8125 76.7593 36.5938 76.0405 33.1094 75.7593V63.1811C34.5938 60.7593 37.4688 58.2749 40.5625 58.2749C45.875 58.2749 48.125 61.728 48.2188 61.8686C48.4062 62.1811 48.7031 62.4155 49.0469 62.5249L61.4688 66.7436C63.4531 67.4936 64.5 69.1811 64.0156 70.8843C63.7969 71.6655 63.2812 72.3218 62.5625 72.7124C61.8594 73.103 61.0469 73.1968 60.2656 72.9936L46.2656 68.5561C45.4375 68.2905 44.5625 68.7436 44.2969 69.5718C44.0312 70.3999 44.4844 71.2749 45.3125 71.5405L59.3281 75.978C59.3438 75.978 59.3594 75.9936 59.375 75.9936C59.9375 76.1499 60.5 76.228 61.0781 76.228C62.1094 76.228 63.1406 75.9624 64.0781 75.4468C65.5156 74.6499 66.5625 73.3374 67.0156 71.7436C67.0469 71.6186 67.0781 71.4936 67.1094 71.3686L78.8438 68.1186C80.5312 67.5405 82.7656 67.3374 83.75 69.6186C84.7812 72.2593 82.1094 73.728 81.4219 74.0718Z"/>
</mask>
<path d="M86.6562 68.4311H84.6562V68.8069L84.7926 69.157L86.6562 68.4311ZM86.6406 68.3843H88.6406V67.9743L88.4794 67.5975L86.6406 68.3843ZM77.8438 65.1343L78.3775 67.0617L78.434 67.0461L78.4896 67.0271L77.8438 65.1343ZM66.9531 68.1499L65.0527 68.773L65.6473 70.5867L67.4868 70.0774L66.9531 68.1499ZM62.5312 63.7905L63.2306 61.9168L62.8923 61.7905H62.5312V63.7905ZM62.4844 63.7749L61.8415 65.6688L62.1542 65.7749H62.4844V63.7749ZM50.5156 59.7124L48.939 60.9429L49.3068 61.4142L49.8728 61.6063L50.5156 59.7124ZM30.7969 60.9936V62.9936H31.8567L32.4518 62.1167L30.7969 60.9936ZM27.2031 80.9155V78.9155H25.2031V80.9155H27.2031ZM33.125 78.8999L33.2961 76.9072L31.125 76.7207V78.8999H33.125ZM38.8281 80.9468L37.8283 82.6789L37.8326 82.6814L38.8281 80.9468ZM48.2188 85.7436L49.633 84.3294L49.3741 84.0705L49.0402 83.9201L48.2188 85.7436ZM48.2812 85.7749L46.867 87.1891L47.1573 87.4794L47.5385 87.6318L48.2812 85.7749ZM58.4844 85.6186L57.8106 83.7355L57.7336 83.7631L57.6591 83.7968L58.4844 85.6186ZM82.5469 77.0093L81.9144 75.1119L81.8937 75.1188L81.8731 75.1262L82.5469 77.0093ZM82.6719 76.9624L83.3043 78.8598L83.4209 78.8209L83.5317 78.7681L82.6719 76.9624ZM24.0781 80.6811V82.6811H26.0781V80.6811H24.0781ZM17.9062 80.6811H15.9062V82.6811H17.9062V80.6811ZM17.9062 64.1186V62.1186H15.9062V64.1186H17.9062ZM24.0781 64.1186H26.0781V62.1186H24.0781V64.1186ZM27.2031 77.7749H25.2031V79.7749H27.2031V77.7749ZM27.2031 64.1186V62.1186H25.2031V64.1186H27.2031ZM30 64.1186H32V62.1186H30V64.1186ZM30 77.7749V79.7749H32V77.7749H30ZM81.4219 74.0718L82.096 75.9547L82.209 75.9143L82.3163 75.8606L81.4219 74.0718ZM57.375 82.6811V84.6811H57.7222L58.0491 84.5641L57.375 82.6811ZM57.2969 82.7124L56.4025 80.9235L56.1122 81.0687L55.8827 81.2982L57.2969 82.7124ZM57.2344 82.7436L58.0741 84.5588L58.397 84.4094L58.6486 84.1578L57.2344 82.7436ZM49.4531 82.8686L48.6319 84.6922L48.6708 84.7097L48.7103 84.7256L49.4531 82.8686ZM40.375 78.228L41.3736 76.4951L41.3696 76.4928L40.375 78.228ZM33.1094 75.7593H31.1094V77.6043L32.9485 77.7528L33.1094 75.7593ZM33.1094 63.1811L31.4042 62.136L31.1094 62.617V63.1811H33.1094ZM48.2188 61.8686L49.9337 60.8397L49.9092 60.7988L49.8829 60.7592L48.2188 61.8686ZM49.0469 62.5249L49.69 60.6311L49.6717 60.6249L49.6533 60.619L49.0469 62.5249ZM61.4688 66.7436L62.1758 64.8728L62.1441 64.8608L62.1119 64.8499L61.4688 66.7436ZM64.0156 70.8843L62.0919 70.3372L62.0897 70.345L64.0156 70.8843ZM62.5625 72.7124L61.6075 70.9551L61.5993 70.9596L61.5912 70.9641L62.5625 72.7124ZM60.2656 72.9936L59.6613 74.9002L59.7115 74.9161L59.7624 74.9293L60.2656 72.9936ZM46.2656 68.5561L45.6548 70.4606L45.6613 70.4627L46.2656 68.5561ZM45.3125 71.5405L44.7016 73.445L44.7088 73.4472L45.3125 71.5405ZM59.3281 75.978L58.7244 77.8847L59.0191 77.978H59.3281V75.978ZM59.375 75.9936L59.9103 74.0666L59.6476 73.9936H59.375V75.9936ZM64.0781 75.4468L65.042 77.1992L65.0478 77.196L64.0781 75.4468ZM67.0156 71.7436L68.9394 72.2906L68.9481 72.2598L68.9559 72.2287L67.0156 71.7436ZM67.1094 71.3686L66.5755 69.4412L65.4519 69.7524L65.1691 70.8836L67.1094 71.3686ZM78.8438 68.1186L79.3776 70.0461L79.4353 70.0301L79.492 70.0107L78.8438 68.1186ZM83.75 69.6186L85.613 68.8911L85.6002 68.8584L85.5863 68.8263L83.75 69.6186ZM88.6562 68.4311C88.6562 68.2624 88.6352 68.1157 88.6094 67.9979C88.5965 67.9388 88.5821 67.8857 88.568 67.8394C88.5538 67.7931 88.5395 67.752 88.5264 67.7171C88.5133 67.6822 88.5009 67.6518 88.4901 67.6268C88.4794 67.6019 88.4698 67.5808 88.4622 67.5646C88.4547 67.5485 88.4483 67.5355 88.4443 67.5274C88.4406 67.5198 88.4373 67.5132 88.4372 67.5132C88.4363 67.5113 88.4386 67.5159 88.4414 67.5215C88.4444 67.5277 88.4498 67.5388 88.4564 67.5529C88.4631 67.5671 88.4719 67.5863 88.4818 67.6093C88.4916 67.6323 88.5033 67.6607 88.5157 67.6937C88.5281 67.7267 88.5417 67.7657 88.5552 67.8101C88.5687 67.8545 88.5826 67.9056 88.5951 67.9627C88.62 68.0767 88.6406 68.2194 88.6406 68.3843H84.6406C84.6406 68.553 84.6617 68.6997 84.6875 68.8176C84.7004 68.8766 84.7148 68.9297 84.7289 68.976C84.743 69.0224 84.7573 69.0634 84.7704 69.0983C84.7835 69.1332 84.796 69.1636 84.8067 69.1886C84.8174 69.2135 84.8271 69.2346 84.8347 69.2508C84.8422 69.2669 84.8486 69.2799 84.8526 69.2881C84.8563 69.2956 84.8596 69.3022 84.8596 69.3022C84.8606 69.3041 84.8583 69.2995 84.8555 69.2939C84.8525 69.2877 84.847 69.2766 84.8404 69.2625C84.8338 69.2483 84.825 69.2291 84.8151 69.2061C84.8052 69.1831 84.7935 69.1547 84.7812 69.1217C84.7688 69.0888 84.7552 69.0497 84.7417 69.0053C84.7281 68.9609 84.7143 68.9098 84.7018 68.8527C84.6769 68.7388 84.6562 68.596 84.6562 68.4311H88.6562ZM88.4794 67.5975C87.5611 65.4516 85.9656 63.8809 83.8908 63.1138C81.8461 62.3579 79.5223 62.4484 77.1979 63.2414L78.4896 67.0271C80.1495 66.4608 81.5055 66.4966 82.5037 66.8656C83.4719 67.2236 84.2826 67.9575 84.8019 69.1711L88.4794 67.5975ZM77.31 63.2068L66.4194 66.2224L67.4868 70.0774L78.3775 67.0617L77.31 63.2068ZM68.8536 67.5268C68.0198 64.9836 65.9581 62.9348 63.2306 61.9168L61.8319 65.6643C63.5419 66.3025 64.6365 67.5036 65.0527 68.773L68.8536 67.5268ZM62.5312 61.7905C62.696 61.7905 62.8388 61.8111 62.9527 61.836C63.0097 61.8485 63.0608 61.8623 63.1052 61.8759C63.1496 61.8894 63.1886 61.903 63.2216 61.9153C63.2545 61.9277 63.283 61.9394 63.306 61.9493C63.3289 61.9591 63.3481 61.9679 63.3623 61.9746C63.3764 61.9812 63.3875 61.9866 63.3937 61.9896C63.3993 61.9924 63.4039 61.9947 63.402 61.9937C63.402 61.9937 63.3954 61.9904 63.3878 61.9867C63.3797 61.9827 63.3667 61.9763 63.3506 61.9688C63.3344 61.9612 63.3133 61.9516 63.2884 61.9409C63.2634 61.9302 63.2331 61.9177 63.1981 61.9046C63.1632 61.8915 63.1222 61.8772 63.0759 61.8631C63.0296 61.849 62.9765 61.8347 62.9175 61.8217C62.7997 61.796 62.6531 61.7749 62.4844 61.7749V65.7749C62.3196 65.7749 62.1769 65.7543 62.063 65.7294C62.0059 65.7169 61.9548 65.7031 61.9104 65.6896C61.8661 65.676 61.827 65.6624 61.794 65.6501C61.7611 65.6377 61.7327 65.626 61.7097 65.6162C61.6867 65.6063 61.6675 65.5975 61.6533 65.5909C61.6392 65.5843 61.6281 65.5788 61.6219 65.5758C61.6163 65.573 61.6117 65.5707 61.6136 65.5717C61.6137 65.5717 61.6202 65.575 61.6278 65.5787C61.6359 65.5827 61.649 65.5891 61.665 65.5966C61.6812 65.6042 61.7023 65.6138 61.7272 65.6245C61.7522 65.6353 61.7826 65.6477 61.8175 65.6608C61.8524 65.6739 61.8934 65.6882 61.9397 65.7023C61.986 65.7164 62.0391 65.7308 62.0981 65.7437C62.2159 65.7694 62.3626 65.7905 62.5312 65.7905V61.7905ZM63.1272 61.881L51.1585 57.8185L49.8728 61.6063L61.8415 65.6688L63.1272 61.881ZM52.0923 58.4819C50.8892 56.9405 47.2607 53.1343 40.5625 53.1343V57.1343C45.5518 57.1343 48.142 59.9218 48.939 60.9429L52.0923 58.4819ZM40.5625 53.1343C35.5805 53.1343 31.4327 56.4947 29.1419 59.8706L32.4518 62.1167C34.3173 59.3676 37.3882 57.1343 40.5625 57.1343V53.1343ZM30.7969 58.9936H16.3438V62.9936H30.7969V58.9936ZM16.3438 58.9936C14.3798 58.9936 12.7812 60.5922 12.7812 62.5561H16.7812C16.7812 62.8013 16.5889 62.9936 16.3438 62.9936V58.9936ZM12.7812 62.5561V82.2593H16.7812V62.5561H12.7812ZM12.7812 82.2593C12.7812 84.2232 14.3798 85.8218 16.3438 85.8218V81.8218C16.5889 81.8218 16.7812 82.0141 16.7812 82.2593H12.7812ZM16.3438 85.8218H25.6406V81.8218H16.3438V85.8218ZM25.6406 85.8218C27.6046 85.8218 29.2031 84.2232 29.2031 82.2593H25.2031C25.2031 82.0141 25.3954 81.8218 25.6406 81.8218V85.8218ZM29.2031 82.2593V80.9155H25.2031V82.2593H29.2031ZM27.2031 82.9155H31.5625V78.9155H27.2031V82.9155ZM31.5625 82.9155C33.5264 82.9155 35.125 81.317 35.125 79.353H31.125C31.125 79.1078 31.3173 78.9155 31.5625 78.9155V82.9155ZM35.125 79.353V78.8999H31.125V79.353H35.125ZM32.9539 80.8925C34.1105 80.9919 34.7531 81.1404 35.3359 81.3663C35.978 81.6151 36.6209 81.982 37.8283 82.6789L39.8279 79.2146C38.7072 78.5677 37.772 78.0206 36.7813 77.6366C35.7313 77.2296 34.6864 77.0266 33.2961 76.9072L32.9539 80.8925ZM37.8326 82.6814C39.6549 83.7272 42.4217 85.3257 47.3973 87.5671L49.0402 83.9201C44.2346 81.7553 41.5951 80.2288 39.8236 79.2121L37.8326 82.6814ZM46.8045 87.1578C46.9244 87.2777 47.0437 87.367 47.1459 87.4325C47.2472 87.4975 47.3379 87.543 47.4052 87.5736C47.4723 87.6041 47.5281 87.6251 47.5609 87.637C47.578 87.6432 47.5922 87.648 47.6012 87.6511C47.6096 87.654 47.617 87.6564 47.6175 87.6566C47.6199 87.6574 47.6154 87.6559 47.61 87.6541C47.6039 87.652 47.5926 87.6481 47.5784 87.643C47.5513 87.6332 47.5011 87.6143 47.4394 87.5863C47.3775 87.5581 47.2919 87.5153 47.1954 87.4534C47.0979 87.3909 46.983 87.3051 46.867 87.1891L49.6955 84.3607C49.5756 84.2408 49.4563 84.1515 49.3541 84.086C49.2528 84.021 49.1621 83.9755 49.0948 83.9449C49.0277 83.9144 48.9719 83.8934 48.9391 83.8815C48.922 83.8753 48.9078 83.8705 48.8988 83.8674C48.8904 83.8645 48.883 83.8621 48.8825 83.8619C48.8801 83.8611 48.8846 83.8626 48.89 83.8644C48.8961 83.8665 48.9074 83.8704 48.9216 83.8755C48.9487 83.8853 48.9989 83.9042 49.0606 83.9322C49.1225 83.9604 49.2081 84.0032 49.3046 84.0651C49.4021 84.1276 49.517 84.2134 49.633 84.3294L46.8045 87.1578ZM47.5385 87.6318C48.6325 88.0694 50.7188 88.728 53.3125 88.728V84.728C51.375 84.728 49.805 84.2303 49.024 83.9179L47.5385 87.6318ZM53.3125 88.728C55.1334 88.728 57.1866 88.4021 59.3096 87.4404L57.6591 83.7968C56.1259 84.4914 54.6479 84.728 53.3125 84.728V88.728ZM59.1581 87.5017L83.2206 78.8924L81.8731 75.1262L57.8106 83.7355L59.1581 87.5017ZM83.1793 78.9066C83.2653 78.878 83.335 78.8496 83.3521 78.8428C83.3741 78.834 83.3435 78.8467 83.3043 78.8598L82.0394 75.065C81.9534 75.0937 81.8837 75.122 81.8666 75.1289C81.8447 75.1376 81.8753 75.1249 81.9144 75.1119L83.1793 78.9066ZM83.5317 78.7681C84.9164 78.1088 86.6783 76.8726 87.8579 75.0384C89.0946 73.1155 89.6424 70.5875 88.5199 67.7053L84.7926 69.157C85.4045 70.7279 85.1085 71.9186 84.4936 72.8747C83.8217 73.9194 82.7243 74.7223 81.812 75.1567L83.5317 78.7681ZM24.0781 78.6811H17.9062V82.6811H24.0781V78.6811ZM19.9062 80.6811V64.1186H15.9062V80.6811H19.9062ZM17.9062 66.1186H24.0781V62.1186H17.9062V66.1186ZM22.0781 64.1186V80.6811H26.0781V64.1186H22.0781ZM29.9844 75.7749H27.2031V79.7749H29.9844V75.7749ZM29.2031 77.7749V64.1186H25.2031V77.7749H29.2031ZM27.2031 66.1186H30V62.1186H27.2031V66.1186ZM28 64.1186V77.7749H32V64.1186H28ZM30 75.7749H29.9844V79.7749H30V75.7749ZM80.7477 72.1888L56.7009 80.7982L58.0491 84.5641L82.096 75.9547L80.7477 72.1888ZM57.375 80.6811C57.0807 80.6811 56.856 80.7468 56.7784 80.7704C56.676 80.8016 56.5959 80.8346 56.554 80.8526C56.4753 80.8863 56.4032 80.9232 56.4025 80.9235L58.1913 84.5012C58.2219 84.486 58.1809 84.5072 58.1296 84.5292C58.1014 84.5413 58.0339 84.5695 57.9428 84.5972C57.8955 84.6116 57.8265 84.6306 57.7415 84.6467C57.6598 84.6622 57.5324 84.6811 57.375 84.6811V80.6811ZM55.8827 81.2982C55.9986 81.1822 56.1135 81.0963 56.211 81.0338C56.3075 80.972 56.3931 80.9291 56.455 80.901C56.5167 80.8729 56.5669 80.8541 56.594 80.8443C56.6082 80.8391 56.6195 80.8353 56.6256 80.8332C56.6311 80.8313 56.6356 80.8298 56.6331 80.8307C56.6326 80.8308 56.6252 80.8333 56.6168 80.8361C56.6078 80.8392 56.5937 80.8441 56.5765 80.8503C56.5437 80.8621 56.4879 80.8832 56.4209 80.9136C56.3535 80.9443 56.2628 80.9898 56.1615 81.0547C56.0593 81.1203 55.94 81.2095 55.8202 81.3294L58.6486 84.1578C58.5326 84.2738 58.4178 84.3597 58.3203 84.4222C58.2238 84.484 58.1382 84.5269 58.0762 84.5551C58.0145 84.5831 57.9643 84.6019 57.9372 84.6117C57.923 84.6169 57.9118 84.6207 57.9057 84.6228C57.9002 84.6247 57.8957 84.6262 57.8982 84.6253C57.8986 84.6252 57.906 84.6227 57.9144 84.6199C57.9234 84.6168 57.9376 84.6119 57.9547 84.6057C57.9875 84.5939 58.0433 84.5728 58.1104 84.5424C58.1777 84.5118 58.2684 84.4662 58.3697 84.4013C58.472 84.3358 58.5912 84.2465 58.7111 84.1266L55.8827 81.2982ZM56.3946 80.9285C53.7806 82.1378 51.2319 81.4261 50.1959 81.0117L48.7103 84.7256C50.1743 85.3112 54.0007 86.4432 58.0741 84.5588L56.3946 80.9285ZM50.2744 81.045C45.64 78.958 43.1879 77.5407 41.3736 76.4951L39.3764 79.9609C41.2496 81.0403 43.8288 82.5293 48.6319 84.6922L50.2744 81.045ZM41.3696 76.4928C40.1263 75.7803 39.0329 75.1426 37.7913 74.6761C36.5074 74.1937 35.1374 73.9165 33.2703 73.7657L32.9485 77.7528C34.5657 77.8833 35.5473 78.106 36.3845 78.4206C37.2639 78.7509 38.0612 79.207 39.3804 79.9632L41.3696 76.4928ZM35.1094 75.7593V63.1811H31.1094V75.7593H35.1094ZM34.8146 64.2263C35.4271 63.2269 36.3379 62.2037 37.3963 61.4463C38.459 60.6858 39.5517 60.2749 40.5625 60.2749V56.2749C38.4796 56.2749 36.5878 57.1062 35.0686 58.1934C33.5449 59.2836 32.2761 60.7135 31.4042 62.136L34.8146 64.2263ZM40.5625 60.2749C42.7534 60.2749 44.2457 60.9782 45.1883 61.6488C45.6679 61.9899 46.0148 62.3301 46.239 62.5809C46.3507 62.7058 46.4308 62.8072 46.4805 62.8735C46.5275 62.9363 46.5485 62.9688 46.5546 62.978L49.8829 60.7592C49.8858 60.7637 49.8731 60.7445 49.8631 60.7297C49.8512 60.712 49.8363 60.69 49.8185 60.6644C49.7829 60.6131 49.7371 60.5491 49.681 60.4742C49.569 60.3248 49.4164 60.1333 49.2209 59.9147C48.8309 59.4785 48.2657 58.929 47.507 58.3893C45.9731 57.2982 43.6841 56.2749 40.5625 56.2749V60.2749ZM46.5038 62.8976C46.9411 63.6266 47.6316 64.1734 48.4405 64.4308L49.6533 60.619C49.7746 60.6577 49.8714 60.7357 49.9337 60.8397L46.5038 62.8976ZM48.4037 64.4187L60.8256 68.6374L62.1119 64.8499L49.69 60.6311L48.4037 64.4187ZM60.7617 68.6145C62.0799 69.1127 62.2105 69.9201 62.0919 70.3372L65.9393 71.4314C66.7895 68.4422 64.8264 65.8746 62.1758 64.8728L60.7617 68.6145ZM62.0897 70.345C62.0144 70.6138 61.844 70.8266 61.6075 70.9551L63.5175 74.4696C64.7185 73.8169 65.5793 72.7173 65.9416 71.4235L62.0897 70.345ZM61.5912 70.9641C61.3531 71.0964 61.0706 71.1364 60.7689 71.058L59.7624 74.9293C61.0232 75.2571 62.3657 75.1097 63.5338 74.4607L61.5912 70.9641ZM60.8699 71.0871L46.8699 66.6496L45.6613 70.4627L59.6613 74.9002L60.8699 71.0871ZM46.8765 66.6517C44.9903 66.0467 42.9934 67.0872 42.3924 68.9609L46.2013 70.1826C46.1316 70.4 45.8847 70.5343 45.6548 70.4606L46.8765 66.6517ZM42.3924 68.9609C41.7875 70.8471 42.828 72.844 44.7016 73.4449L45.9234 69.6361C46.1408 69.7058 46.275 69.9527 46.2013 70.1826L42.3924 68.9609ZM44.7088 73.4472L58.7244 77.8847L59.9318 74.0713L45.9162 69.6338L44.7088 73.4472ZM59.3281 77.978C59.1633 77.978 59.0205 77.9574 58.9066 77.9325C58.8495 77.92 58.7983 77.9061 58.7539 77.8926C58.7096 77.8791 58.6705 77.8655 58.6375 77.8531C58.6046 77.8407 58.5761 77.829 58.5531 77.8191C58.5302 77.8093 58.511 77.8005 58.4968 77.7938C58.4826 77.7872 58.4715 77.7818 58.4654 77.7787C58.4598 77.776 58.4551 77.7737 58.4571 77.7746C58.4571 77.7746 58.4637 77.778 58.4712 77.7817C58.4793 77.7857 58.4924 77.792 58.5085 77.7996C58.5246 77.8071 58.5458 77.8168 58.5707 77.8275C58.5957 77.8382 58.626 77.8507 58.661 77.8638C58.6959 77.8769 58.7369 77.8912 58.7832 77.9053C58.8296 77.9195 58.8827 77.9338 58.9417 77.9468C59.0596 77.9725 59.2062 77.9936 59.375 77.9936V73.9936C59.5398 73.9936 59.6826 74.0142 59.7966 74.0392C59.8537 74.0517 59.9048 74.0655 59.9492 74.079C59.9935 74.0926 60.0326 74.1062 60.0656 74.1186C60.0986 74.1309 60.127 74.1426 60.15 74.1525C60.173 74.1624 60.1922 74.1711 60.2064 74.1778C60.2205 74.1844 60.2316 74.1898 60.2378 74.1929C60.2434 74.1956 60.248 74.198 60.2461 74.197C60.246 74.197 60.2395 74.1937 60.2319 74.19C60.2238 74.186 60.2107 74.1796 60.1947 74.1721C60.1785 74.1645 60.1573 74.1548 60.1324 74.1441C60.1075 74.1334 60.0771 74.1209 60.0422 74.1078C60.0072 74.0947 59.9662 74.0804 59.9199 74.0663C59.8735 74.0522 59.8205 74.0378 59.7614 74.0249C59.6436 73.9991 59.4969 73.978 59.3281 73.978V77.978ZM58.8397 77.9207C59.5724 78.1242 60.3148 78.228 61.0781 78.228V74.228C60.6852 74.228 60.3026 74.1756 59.9103 74.0666L58.8397 77.9207ZM61.0781 78.228C62.4537 78.228 63.8156 77.8737 65.042 77.1992L63.1143 73.6943C62.4656 74.0511 61.7651 74.228 61.0781 74.228V78.228ZM65.0478 77.196C66.9493 76.1419 68.3404 74.3974 68.9394 72.2906L65.0919 71.1967C64.7846 72.2774 64.082 73.1579 63.1085 73.6975L65.0478 77.196ZM68.9559 72.2287C68.9571 72.2238 68.9561 72.2278 68.9574 72.2229C68.9619 72.2049 68.9543 72.235 68.9588 72.217C68.9597 72.2137 68.9595 72.2144 68.9603 72.2111C68.9606 72.2098 68.9603 72.211 68.9607 72.2097C68.9611 72.2081 68.9606 72.2098 68.961 72.2082C68.9611 72.208 68.9612 72.2077 68.9612 72.2075C68.9613 72.2072 68.9613 72.207 68.9614 72.2067C68.9618 72.205 68.9613 72.207 68.9618 72.2053C68.9672 72.1837 68.9593 72.2151 68.9647 72.1936C68.993 72.0804 68.9393 72.295 68.9676 72.1818C68.9706 72.1699 68.9676 72.1821 68.9706 72.1701C68.9842 72.1154 68.9598 72.2131 68.9735 72.1584C68.9736 72.1581 68.9793 72.1353 68.9793 72.135C68.9918 72.0851 68.9786 72.138 68.9911 72.0881C69.0119 72.0047 68.9731 72.1597 68.994 72.0764C68.9951 72.0721 68.9944 72.0748 68.9955 72.0705C68.9982 72.0596 68.9942 72.0756 68.9969 72.0646C68.9978 72.0613 68.9968 72.0651 68.9977 72.0617C68.9981 72.0598 68.9979 72.0607 68.9984 72.0588C69.003 72.0404 68.9952 72.0714 68.9999 72.0529C69.0246 71.9538 68.978 72.1403 69.0028 72.0412C69.0176 71.9819 68.9997 72.0537 69.0145 71.9943C69.0184 71.9787 69.0223 71.9631 69.0262 71.9475C69.0313 71.9272 69.027 71.9443 69.0321 71.924C69.0367 71.9056 69.0289 71.9366 69.0335 71.9182C69.0335 71.9182 69.0343 71.9152 69.0343 71.9152C69.0348 71.9133 69.0345 71.9142 69.035 71.9123C69.0501 71.852 69.0229 71.9609 69.0379 71.9006C69.0488 71.8573 69.0301 71.9321 69.0409 71.8889C69.0765 71.7463 69.0082 72.0197 69.0438 71.8771C69.0633 71.7992 69.0302 71.9316 69.0497 71.8537L65.1691 70.8836C65.1646 70.9014 65.1677 70.8892 65.1632 70.907C65.1566 70.9336 65.167 70.8921 65.1603 70.9187C65.1331 71.0275 65.1846 70.8216 65.1574 70.9304C65.1524 70.9505 65.1595 70.9221 65.1544 70.9422C65.154 70.9438 65.1545 70.942 65.1541 70.9436C65.154 70.9439 65.154 70.9441 65.1539 70.9444C65.1538 70.9446 65.1538 70.9448 65.1537 70.9451C65.1536 70.9454 65.1531 70.9477 65.153 70.948C65.152 70.9518 65.1524 70.9501 65.1515 70.9539C65.1489 70.9642 65.1482 70.967 65.1457 70.9773C65.1268 71.0529 65.1528 70.9486 65.1339 71.0242C65.1322 71.0311 65.1239 71.0642 65.1222 71.0711C65.1037 71.1451 65.1173 71.0908 65.0988 71.1648C65.0937 71.1851 65.098 71.168 65.0929 71.1883C65.0883 71.2066 65.0961 71.1757 65.0914 71.1941C65.0914 71.1941 65.0907 71.197 65.0907 71.197C65.0902 71.199 65.0905 71.198 65.09 71.2C65.0749 71.2603 65.1021 71.1513 65.0871 71.2117C65.0762 71.2549 65.0949 71.1802 65.0841 71.2234C65.0485 71.366 65.1168 71.0926 65.0812 71.2351C65.0617 71.3131 65.0948 71.1806 65.0753 71.2586L68.9559 72.2287ZM67.6432 73.2961L79.3776 70.0461L78.3099 66.1912L66.5755 69.4412L67.6432 73.2961ZM79.492 70.0107C80.1993 69.7683 80.7986 69.6907 81.2032 69.7642C81.3785 69.796 81.4904 69.8511 81.5733 69.9159C81.6541 69.9791 81.7844 70.1116 81.9137 70.411L85.5863 68.8263C84.8197 67.0495 83.4458 66.1061 81.9179 65.8286C80.5373 65.5778 79.1757 65.8908 78.1955 66.2266L79.492 70.0107ZM81.887 70.3462C82.0073 70.6541 81.9908 70.8346 81.9671 70.9394C81.9385 71.0662 81.8635 71.2253 81.7023 71.4163C81.3485 71.8353 80.8113 72.141 80.5275 72.2829L82.3163 75.8606C82.7199 75.6588 83.8624 75.0582 84.7586 73.9968C85.7356 72.8397 86.4574 71.0532 85.613 68.8911L81.887 70.3462Z" fill="url(#paint0_linear)" mask="url(#path-3-inside-1)"/>
<path d="M75.579 17.2031H76.579V16.2031V14.8594C76.579 14.5523 76.8344 14.2969 77.1415 14.2969H86.4384C86.752 14.2969 87.0009 14.5432 87.0009 14.8594V34.5469C87.0009 34.854 86.7455 35.1094 86.4384 35.1094H71.9853H71.4554L71.1578 35.5479C69.186 38.4537 65.8459 40.9688 62.2197 40.9688C61.8247 40.9688 61.4218 40.9405 61.0151 40.9092L60.5565 40.8739L60.2313 41.1991L44.3407 57.0898L44.3406 57.0897L44.3318 57.0988C44.2793 57.1526 44.1559 57.2182 43.9404 57.2081C43.8392 57.2034 43.743 57.1817 43.6654 57.1513C43.5843 57.1195 43.5518 57.0898 43.5518 57.0898L13.8174 27.3554C13.6823 27.2203 13.6424 27.0808 13.6468 26.9544C13.6516 26.8141 13.7131 26.6708 13.8174 26.5665L13.8177 26.5662L31.208 9.16023C31.4269 8.94138 31.7937 8.94138 32.0126 9.16023L37.3094 14.4571L37.7574 14.9051L38.3538 14.6914L44.635 12.4414L44.6732 12.4277L44.7101 12.411C48.7373 10.5882 52.5225 11.6545 54.0645 12.2471L54.1527 12.2868C58.9126 14.431 61.5742 15.9588 63.358 16.9828L63.4542 17.038L63.4563 17.0392L63.5398 17.0874C64.6399 17.7225 65.4814 18.2082 66.3622 18.5496C67.2954 18.9113 68.2397 19.1007 69.5716 19.2151L70.6572 19.3083V18.2188V17.7656C70.6572 17.4585 70.9126 17.2031 71.2197 17.2031H75.579ZM43.2149 55.1747L43.9216 55.9154L44.6455 55.1915L58.1924 41.6446L59.5587 40.2783L57.6543 39.9519C56.7745 39.8011 55.8796 39.3315 55.1147 38.7245C54.3434 38.1124 53.7974 37.435 53.5672 36.9747L53.3788 36.5979L52.9776 36.4695L46.6808 34.4539L45.6719 34.1309L45.4076 35.1567C45.0622 36.4967 44.3567 37.73 43.3563 38.7304C41.8164 40.2703 39.7926 41.0469 37.7665 41.0469C35.7405 41.0469 33.7167 40.2703 32.1768 38.7304C29.0992 35.6528 29.0985 30.6313 32.1747 27.5529C33.3161 26.4263 34.7601 25.6645 36.3242 25.3738L36.8203 25.2816L37.0409 24.8278C37.4989 23.8856 38.2304 23.1015 39.1741 22.5773L39.1758 22.5763C39.7402 22.2613 40.3278 22.0654 40.9451 21.9735L42.8913 21.6836L41.5099 20.2823L40.7978 20.9844C41.5099 20.2823 41.5099 20.2823 41.5098 20.2822L41.5096 20.282L41.5085 20.2809L41.5044 20.2767L41.488 20.2601L41.4241 20.1952L41.1799 19.9476L40.2969 19.0522C39.5595 18.3046 38.5604 17.2918 37.5134 16.2311C35.4209 14.1113 33.1328 11.7958 32.3643 11.0273L31.6572 10.3202L30.9501 11.0273L15.7157 26.2616L15.0386 26.9387L15.6856 27.6445C16.4653 28.495 22.4336 34.4301 28.614 40.5761L28.9598 40.92C35.289 47.214 41.7659 53.656 43.2149 55.1747ZM40.63 32.3849C40.6248 32.3828 40.6194 32.3807 40.6138 32.3786C40.5969 32.3723 40.577 32.3653 40.5543 32.3583C38.231 31.481 36.8027 29.6393 36.5722 27.68L36.4197 26.3836L35.2076 26.8684C34.3778 27.2003 33.6232 27.6979 32.9813 28.3398C30.3408 30.9803 30.3408 35.2853 32.9813 37.9259C35.6207 40.5652 39.923 40.5664 42.5639 37.9294C43.5013 37.009 44.1247 35.8511 44.3993 34.606L44.5921 33.732L43.7447 33.4438L40.63 32.3849ZM40.7216 32.4259L40.7189 32.4246L40.7216 32.4259ZM70.5254 34.4601L71.4586 32.9375H70.6572V21.3594V20.4368L69.7376 20.3626C68.0579 20.227 66.9792 19.9907 66.0303 19.6342C65.0707 19.2737 64.2077 18.779 62.9304 18.0469L62.8908 18.0242L62.8888 18.023L62.863 18.0081C61.0069 16.9385 58.4612 15.4715 53.724 13.3382L53.7046 13.3294L53.6848 13.3215C52.3305 12.7798 48.8348 11.7558 45.1344 13.4572C45.1183 13.4625 45.1039 13.4676 45.0912 13.4724C45.0852 13.4746 45.0794 13.4769 45.0738 13.479L45.0688 13.4809L40.1156 15.2621L38.6323 15.7956L39.7469 16.9102L45.5126 22.6759L45.6063 22.7696L45.7795 22.9428L46.0132 23.0164L57.1799 26.5303C57.1805 26.5306 57.1812 26.5308 57.1819 26.531C57.4859 26.6297 57.6444 26.943 57.5487 27.2414C57.4508 27.5468 57.1367 27.7062 56.8376 27.6103L56.8343 27.6092L42.8343 23.1717L42.8092 23.1638L42.7838 23.1572C41.7628 22.8917 40.6853 23.0123 39.7496 23.5321L39.7423 23.5362L39.735 23.5404C38.8182 24.0701 38.1287 24.9178 37.8355 25.9623C37.1693 28.3079 38.6742 30.4347 40.9911 31.3104L41.007 31.3164L41.0231 31.3219L53.445 35.5406L53.4503 35.5424C53.5658 35.5809 53.6758 35.6682 53.7546 35.8032C53.7684 35.8279 53.78 35.8464 53.786 35.8558C53.7976 35.8742 53.8082 35.8897 53.8157 35.9005C53.8221 35.9097 53.8284 35.9187 53.8345 35.927C53.8425 35.9381 53.85 35.9483 53.8563 35.9567C53.8787 35.9866 53.9042 36.0195 53.9245 36.0456C53.9474 36.075 53.9648 36.0973 53.9802 36.1174C53.9848 36.1233 53.9881 36.1277 53.9903 36.1307L54.0012 36.147L54.0232 36.1753C54.7151 37.0675 56.737 39.191 60.4526 39.7242L60.4616 39.7255L60.4706 39.7267C60.998 39.7926 61.5882 39.8437 62.2197 39.8437C64.0346 39.8437 65.7265 39.1176 67.1317 38.1121C68.539 37.105 69.7184 35.7768 70.5254 34.4601ZM75.579 33.9844H76.579V32.9844V19.3281V18.3281H75.579H72.7822H71.7822V19.3281V32.9844V33.9844H72.7822H75.579ZM84.8759 33.9844H85.8759V32.9844V16.4219V15.4219H84.8759H78.704H77.704V16.4219V32.9844V33.9844H78.704H84.8759Z" stroke="url(#paint1_linear)" stroke-width="2"/>
</g>
<defs>
<linearGradient id="paint0_linear" x1="105.608" y1="86.728" x2="-15.429" y2="86.7087" gradientUnits="userSpaceOnUse">
<stop stop-color="#0092CF"/>
<stop offset="1" stop-color="#56EBFF"/>
</linearGradient>
<linearGradient id="paint1_linear" x1="107.247" y1="58.2091" x2="-18.8191" y2="58.1959" gradientUnits="userSpaceOnUse">
<stop stop-color="#0092CF"/>
<stop offset="1" stop-color="#56EBFF"/>
</linearGradient>
<clipPath id="clip0">
<rect x="8" y="8" width="80" height="80" fill="white"/>
</clipPath>
</defs>
</svg>
